<svg xmlns="http://www.w3.org/2000/svg" viewBox="0 0 1200 630" fill="none">
  <rect fill="#111" stroke="#0F0" stroke-width="4" x="2" y="2" width="1196" height="626" rx="20" />
  <path fill="#0F0" d="M515.75 208.031h-3.562l-18.75-45.984H497l18.75 45.984Zm15.797-6.656c-2.359 0-4.375-.57-6.047-1.711-1.672-1.156-2.953-2.891-3.844-5.203-.875-2.313-1.312-5.195-1.312-8.649v-4.031c0-3.484.437-6.383 1.312-8.695.891-2.328 2.172-4.078 3.844-5.25 1.672-1.172 3.688-1.758 6.047-1.758 2.344 0 4.344.586 6 1.758 1.656 1.172 2.922 2.922 3.797 5.25.875 2.312 1.312 5.211 1.312 8.695v4.031c0 3.454-.437 6.336-1.312 8.649-.875 2.312-2.141 4.047-3.797 5.203-1.656 1.141-3.656 1.711-6 1.711Zm0-3.844c1.453 0 2.695-.414 3.726-1.242 1.032-.828 1.813-2.07 2.344-3.727.547-1.656.821-3.734.821-6.234v-5.109c0-2.516-.274-4.61-.821-6.281-.531-1.672-1.312-2.922-2.344-3.75-1.031-.844-2.273-1.266-3.726-1.266-1.469 0-2.727.414-3.774 1.242-1.031.828-1.828 2.078-2.39 3.75-.547 1.672-.821 3.774-.821 6.305v5.109c0 2.469.274 4.539.821 6.211.547 1.656 1.336 2.906 2.367 3.75 1.047.828 2.312 1.242 3.797 1.242Zm-7.594-4.828-1.781-3.141 16.922-14.812 1.687 3.094-16.828 14.859Zm34.547 8.672c-2.016 0-3.867-.422-5.555-1.266-1.687-.843-3.039-2.015-4.054-3.515-1-1.516-1.5-3.282-1.5-5.297l4.218-.094c0 1.25.305 2.352.914 3.305a6.45 6.45 0 0 0 2.485 2.226c1.031.532 2.18.797 3.445.797 1.297 0 2.469-.281 3.516-.843a6.526 6.526 0 0 0 2.484-2.297c.625-.969.938-2.063.938-3.282 0-1.203-.321-2.281-.961-3.234-.625-.953-1.539-1.703-2.742-2.25-1.204-.563-2.672-.844-4.407-.844h-1.359l.047-3.656h1.593c1.282 0 2.399-.273 3.352-.82.969-.563 1.719-1.297 2.25-2.203.547-.922.82-1.93.82-3.024 0-1.078-.234-2-.703-2.766a4.611 4.611 0 0 0-1.945-1.757c-.828-.422-1.774-.633-2.836-.633-1.125 0-2.117.219-2.977.656a4.916 4.916 0 0 0-2.015 1.852c-.485.781-.727 1.695-.727 2.742h-4.125c0-1.703.406-3.242 1.219-4.617.828-1.375 1.969-2.461 3.422-3.258 1.469-.813 3.172-1.219 5.109-1.219 1.844 0 3.508.367 4.992 1.102 1.485.718 2.664 1.734 3.54 3.047.874 1.312 1.312 2.835 1.312 4.57 0 1.687-.414 3.187-1.242 4.5a8.614 8.614 0 0 1-3.258 3.047c-1.344.718-2.812 1.047-4.406.984v-.937c1.937-.079 3.679.265 5.226 1.031 1.547.75 2.774 1.812 3.68 3.187.906 1.375 1.359 2.953 1.359 4.735 0 1.875-.492 3.57-1.476 5.086-.985 1.515-2.321 2.718-4.008 3.609-1.672.891-3.547 1.336-5.625 1.336Zm27 0c-2.016 0-3.867-.422-5.555-1.266-1.687-.843-3.039-2.015-4.054-3.515-1-1.516-1.5-3.282-1.5-5.297l4.218-.094c0 1.25.305 2.352.914 3.305a6.45 6.45 0 0 0 2.485 2.226c1.031.532 2.18.797 3.445.797 1.297 0 2.469-.281 3.516-.843a6.526 6.526 0 0 0 2.484-2.297c.625-.969.938-2.063.938-3.282 0-1.203-.321-2.281-.961-3.234-.625-.953-1.539-1.703-2.742-2.25-1.204-.563-2.672-.844-4.407-.844h-1.359l.047-3.656h1.593c1.282 0 2.399-.273 3.352-.82.969-.563 1.719-1.297 2.25-2.203.547-.922.82-1.93.82-3.024 0-1.078-.234-2-.703-2.766a4.611 4.611 0 0 0-1.945-1.757c-.828-.422-1.774-.633-2.836-.633-1.125 0-2.117.219-2.977.656a4.916 4.916 0 0 0-2.015 1.852c-.485.781-.727 1.695-.727 2.742h-4.125c0-1.703.406-3.242 1.219-4.617.828-1.375 1.969-2.461 3.422-3.258 1.469-.813 3.172-1.219 5.109-1.219 1.844 0 3.508.367 4.992 1.102 1.485.718 2.664 1.734 3.54 3.047.874 1.312 1.312 2.835 1.312 4.57 0 1.687-.414 3.187-1.242 4.5a8.614 8.614 0 0 1-3.258 3.047c-1.344.718-2.812 1.047-4.406.984v-.937c1.937-.079 3.679.265 5.226 1.031 1.547.75 2.774 1.812 3.68 3.187.906 1.375 1.359 2.953 1.359 4.735 0 1.875-.492 3.57-1.476 5.086-.985 1.515-2.321 2.718-4.008 3.609-1.672.891-3.547 1.336-5.625 1.336Zm20.953 6.656v-45.984h12.094v3h-8.531v39.984h8.531v3h-12.094Zm33.047-6.656c-2.016 0-3.867-.422-5.555-1.266-1.687-.843-3.039-2.015-4.054-3.515-1-1.516-1.5-3.282-1.5-5.297l4.218-.094c0 1.25.305 2.352.914 3.305a6.45 6.45 0 0 0 2.485 2.226c1.031.532 2.18.797 3.445.797 1.297 0 2.469-.281 3.516-.843a6.526 6.526 0 0 0 2.484-2.297c.625-.969.938-2.063.938-3.282 0-1.203-.321-2.281-.961-3.234-.625-.953-1.539-1.703-2.742-2.25-1.204-.563-2.672-.844-4.407-.844h-1.359l.047-3.656h1.593c1.282 0 2.399-.273 3.352-.82.969-.563 1.719-1.297 2.25-2.203.547-.922.82-1.93.82-3.024 0-1.078-.234-2-.703-2.766a4.611 4.611 0 0 0-1.945-1.757c-.828-.422-1.774-.633-2.836-.633-1.125 0-2.117.219-2.977.656a4.916 4.916 0 0 0-2.015 1.852c-.485.781-.727 1.695-.727 2.742h-4.125c0-1.703.406-3.242 1.219-4.617.828-1.375 1.969-2.461 3.422-3.258 1.469-.813 3.172-1.219 5.109-1.219 1.844 0 3.508.367 4.992 1.102 1.485.718 2.664 1.734 3.54 3.047.874 1.312 1.312 2.835 1.312 4.57 0 1.687-.414 3.187-1.242 4.5a8.614 8.614 0 0 1-3.258 3.047c-1.344.718-2.812 1.047-4.406.984v-.937c1.937-.079 3.679.265 5.226 1.031 1.547.75 2.774 1.812 3.68 3.187.906 1.375 1.359 2.953 1.359 4.735 0 1.875-.492 3.57-1.476 5.086-.985 1.515-2.321 2.718-4.008 3.609-1.672.891-3.547 1.336-5.625 1.336Zm16.172-.375v-1.266l9.703-12a463.756 463.756 0 0 0 3.563-4.429c1.078-1.375 1.937-2.688 2.578-3.938.656-1.25.984-2.492.984-3.726 0-1.125-.266-2.118-.797-2.977a5.408 5.408 0 0 0-2.133-2.016c-.89-.484-1.914-.726-3.07-.726-1.234 0-2.344.281-3.328.844a6.123 6.123 0 0 0-2.344 2.296c-.562.969-.844 2.094-.844 3.376h-4.218c.015-2 .484-3.782 1.406-5.344a10.048 10.048 0 0 1 3.82-3.68c1.61-.891 3.43-1.336 5.461-1.336 1.938 0 3.672.414 5.203 1.242 1.532.813 2.742 1.938 3.633 3.375.891 1.438 1.336 3.086 1.336 4.946 0 1.531-.313 2.992-.937 4.382-.626 1.391-1.5 2.829-2.626 4.313a143.047 143.047 0 0 1-3.89 4.945l-6.328 7.781v.188l5.015-.094h9.516V201h-21.703Zm26.297 0v-24.844h3.703v2.953h.516l-.891 1.219c.406-1.344 1.023-2.437 1.851-3.281.829-.844 1.852-1.266 3.071-1.266 1.078 0 2.039.36 2.883 1.078.859.703 1.414 1.688 1.664 2.953l-.891-.937h1.266l-.938.937c.328-1.171 1-2.132 2.016-2.882 1.015-.766 2.14-1.149 3.375-1.149.859 0 1.625.149 2.297.446a4.447 4.447 0 0 1 1.711 1.335c.468.579.82 1.297 1.054 2.157.25.859.375 1.843.375 2.953V201h-3.843v-18.234c0-1.032-.25-1.821-.75-2.368-.5-.546-1.172-.82-2.016-.82-.813 0-1.524.266-2.133.797s-.914 1.328-.914 2.391V201h-3.75v-18.234c0-1.063-.266-1.86-.797-2.391-.516-.531-1.187-.797-2.016-.797-.796 0-1.5.281-2.109.844-.594.547-.891 1.359-.891 2.437V201h-3.843ZM117.258 384l39.808-123.793h15.118L211.992 384h-15.957l-11.254-36.953-1.511-5.375-18.309-60.805h-.672l-18.309 60.805-1.511 5.375L133.215 384h-15.957Zm20.324-32.418v-13.773h54.086v13.773h-54.086ZM223.414 384V260.207H234.5l41.488 74.242 8.231 14.278h.672l-.336-23.684v-64.836h14.781V384h-10.918l-41.656-74.242-8.231-14.781h-.672l.336 23.683V384h-14.781Zm135.719 1.344c-6.215 0-12.066-1.204-17.553-3.612-5.487-2.407-10.246-5.711-14.277-9.91-4.032-4.255-6.971-9.154-8.819-14.697l14.11-5.879c1.455 4.143 3.555 7.755 6.299 10.834 2.743 3.024 5.878 5.375 9.406 7.055 3.527 1.623 7.194 2.435 11.002 2.435 4.031 0 7.67-.868 10.918-2.603 3.303-1.792 5.907-4.255 7.81-7.391 1.96-3.135 2.94-6.747 2.94-10.834 0-4.479-1.064-8.174-3.192-11.086-2.127-2.911-4.955-5.347-8.482-7.306-3.471-2.016-7.307-3.808-11.506-5.375a399.525 399.525 0 0 1-12.598-5.123c-4.199-1.848-8.062-4.032-11.589-6.551-3.472-2.576-6.271-5.795-8.399-9.658-2.127-3.864-3.191-8.707-3.191-14.53 0-6.774 1.511-12.569 4.535-17.384 3.079-4.816 7.251-8.483 12.514-11.002 5.263-2.576 11.169-3.864 17.72-3.864 5.711 0 10.918.952 15.621 2.856 4.703 1.903 8.763 4.507 12.178 7.81 3.415 3.304 6.019 7.083 7.811 11.338l-13.774 5.543c-1.568-2.967-3.499-5.459-5.795-7.474a23.153 23.153 0 0 0-7.558-4.704c-2.8-1.063-5.739-1.595-8.819-1.595-4.927 0-9.378 1.483-13.353 4.451-3.975 2.967-5.963 7.474-5.963 13.521 0 4.424 1.064 8.063 3.191 10.918 2.128 2.8 4.927 5.151 8.399 7.055 3.527 1.904 7.39 3.639 11.59 5.207a291.065 291.065 0 0 1 12.597 4.871c4.199 1.736 8.035 3.891 11.506 6.467 3.527 2.519 6.355 5.739 8.483 9.658 2.127 3.919 3.191 8.847 3.191 14.781 0 7.055-1.624 13.27-4.871 18.645-3.192 5.375-7.587 9.574-13.186 12.598-5.543 3.023-11.841 4.535-18.896 4.535ZM447.316 384V260.207h15.118V384h-15.118Zm-25.699 0v-13.438h66.516V384h-66.516Zm0-110.355v-13.438h66.516v13.438h-66.516Zm130.008 111.699c-3.415 0-6.355-1.204-8.818-3.612-2.408-2.407-3.612-5.403-3.612-8.986 0-3.471 1.176-6.383 3.528-8.734 2.407-2.352 5.375-3.528 8.902-3.528 3.527 0 6.467 1.176 8.818 3.528 2.408 2.351 3.612 5.263 3.612 8.734 0 3.583-1.204 6.579-3.612 8.986-2.351 2.408-5.291 3.612-8.818 3.612Zm109.852 0c-6.103 0-11.562-1.232-16.377-3.696-4.815-2.519-8.623-5.99-11.422-10.414-2.744-4.423-4.116-9.518-4.116-15.285v-89.527h14.446v88.016c0 5.095 1.735 9.294 5.207 12.597 3.527 3.248 7.838 4.871 12.933 4.871 3.528 0 7.027-.728 10.498-2.183 3.528-1.512 6.579-3.304 9.155-5.375l5.543 13.269c-3.696 2.352-7.783 4.227-12.262 5.627a44.82 44.82 0 0 1-13.605 2.1Zm-52.743-77.266v-13.101h73.067v13.101h-73.067Zm136.391 77.266c-7.839 0-14.725-1.932-20.66-5.795-5.879-3.863-10.47-9.238-13.774-16.125-3.247-6.887-4.871-14.865-4.871-23.936 0-9.07 1.624-17.049 4.871-23.935 3.304-6.943 7.895-12.346 13.774-16.209 5.935-3.92 12.821-5.879 20.66-5.879s14.697 1.959 20.576 5.879c5.935 3.863 10.526 9.266 13.774 16.209 3.303 6.886 4.955 14.865 4.955 23.935 0 9.071-1.652 17.049-4.955 23.936-3.248 6.887-7.839 12.262-13.774 16.125-5.879 3.863-12.737 5.795-20.576 5.795Zm0-13.438c5.151 0 9.574-1.316 13.27-3.947 3.751-2.688 6.606-6.439 8.566-11.254 2.016-4.871 3.023-10.61 3.023-17.217 0-6.606-1.007-12.345-3.023-17.217-1.96-4.871-4.815-8.65-8.566-11.337-3.696-2.688-8.119-4.032-13.27-4.032s-9.602 1.344-13.354 4.032c-3.695 2.687-6.55 6.466-8.566 11.337-1.96 4.872-2.939 10.611-2.939 17.217 0 6.607.979 12.346 2.939 17.217 2.016 4.815 4.871 8.566 8.566 11.254 3.752 2.631 8.203 3.947 13.354 3.947Zm96.75 13.438c-7.839 0-14.725-1.932-20.66-5.795-5.879-3.863-10.47-9.238-13.774-16.125-3.247-6.887-4.871-14.865-4.871-23.936 0-9.07 1.624-17.049 4.871-23.935 3.304-6.943 7.895-12.346 13.774-16.209 5.935-3.92 12.821-5.879 20.66-5.879s14.697 1.959 20.576 5.879c5.935 3.863 10.526 9.266 13.774 16.209 3.303 6.886 4.955 14.865 4.955 23.935 0 9.071-1.652 17.049-4.955 23.936-3.248 6.887-7.839 12.262-13.774 16.125-5.879 3.863-12.737 5.795-20.576 5.795Zm0-13.438c5.151 0 9.574-1.316 13.27-3.947 3.751-2.688 6.606-6.439 8.566-11.254 2.016-4.871 3.023-10.61 3.023-17.217 0-6.606-1.007-12.345-3.023-17.217-1.96-4.871-4.815-8.65-8.566-11.337-3.696-2.688-8.119-4.032-13.27-4.032s-9.602 1.344-13.354 4.032c-3.695 2.687-6.55 6.466-8.566 11.337-1.96 4.872-2.939 10.611-2.939 17.217 0 6.607.979 12.346 2.939 17.217 2.016 4.815 4.871 8.566 8.566 11.254 3.752 2.631 8.203 3.947 13.354 3.947Zm108.34 13.438c-6.215 0-11.618-1.232-16.209-3.696-4.591-2.519-8.175-5.99-10.75-10.414-2.52-4.423-3.779-9.518-3.779-15.285V254.664h14.445v99.774c0 5.095 1.456 9.294 4.367 12.597 2.968 3.248 7.055 4.871 12.262 4.871 3.639 0 7.25-.756 10.834-2.267 3.639-1.568 6.747-3.388 9.322-5.459l5.543 13.269c-3.695 2.352-7.811 4.255-12.346 5.711a44.018 44.018 0 0 1-13.689 2.184Zm85.665 0c-5.88 0-11.26-.98-16.13-2.94-4.81-2.015-8.9-4.591-12.26-7.726-3.3-3.192-5.65-6.523-7.05-9.994l13.44-5.543c1.51 3.247 4.25 6.186 8.23 8.818 3.97 2.631 8.73 3.947 14.27 3.947 3.42 0 6.64-.504 9.66-1.511 3.02-1.064 5.46-2.52 7.31-4.368 1.9-1.903 2.85-4.143 2.85-6.718 0-3.024-1.28-5.431-3.86-7.223-2.52-1.848-5.8-3.387-9.83-4.619-3.97-1.288-8.2-2.576-12.68-3.863a84.862 84.862 0 0 1-12.76-4.956c-3.98-2.015-7.25-4.619-9.83-7.81-2.52-3.248-3.78-7.419-3.78-12.514 0-5.487 1.51-10.05 4.54-13.689 3.08-3.696 7.02-6.439 11.84-8.231 4.81-1.847 9.88-2.771 15.2-2.771 7.5 0 14.11 1.679 19.82 5.039 5.71 3.303 9.91 7.558 12.6 12.766l-13.27 5.542c-1.4-2.463-3.7-4.731-6.89-6.802-3.19-2.072-7.39-3.108-12.6-3.108-4.42 0-8.4.924-11.92 2.772-3.47 1.847-5.21 4.619-5.21 8.314 0 3.136 1.26 5.655 3.78 7.559 2.58 1.847 5.85 3.415 9.83 4.703 4.03 1.232 8.28 2.464 12.76 3.695 4.48 1.232 8.71 2.772 12.68 4.619 4.03 1.848 7.31 4.312 9.83 7.391 2.57 3.023 3.86 7.027 3.86 12.01 0 5.431-1.59 10.19-4.78 14.277-3.14 4.087-7.34 7.279-12.6 9.574-5.21 2.24-10.89 3.36-17.05 3.36Z"/>
</svg>
