<svg xmlns="http://www.w3.org/2000/svg" viewBox="0 0 96 96" fill="none">
  <rect x="2" y="2" width="92" height="92" rx="8" fill="#111" stroke="#0f0" stroke-width="3"/>
  <path fill="#0F0" d="M10.285 61H6.961l9.614-26.182h3.273L29.462 61h-3.324l-7.824-22.04h-.205L10.285 61Zm1.228-10.227H24.91v2.812H11.513v-2.812ZM54.3 34.818V61h-3.068L36.966 40.443h-.256V61h-3.17V34.818h3.068l14.318 20.608h.256V34.818H54.3Zm20.662 6.546c-.153-1.296-.775-2.301-1.866-3.017-1.091-.716-2.43-1.074-4.014-1.074-1.16 0-2.174.187-3.043.562-.86.375-1.534.89-2.02 1.547a3.708 3.708 0 0 0-.716 2.237c0 .7.166 1.3.499 1.803.34.494.775.908 1.304 1.24a9.335 9.335 0 0 0 1.662.805c.58.205 1.112.371 1.598.499l2.659.716c.682.179 1.44.426 2.275.741.844.316 1.65.746 2.416 1.291a6.575 6.575 0 0 1 1.918 2.072c.503.843.754 1.879.754 3.106 0 1.415-.37 2.693-1.112 3.835-.733 1.142-1.807 2.05-3.221 2.723-1.407.674-3.115 1.01-5.127 1.01-1.875 0-3.498-.302-4.87-.907-1.364-.606-2.438-1.45-3.222-2.532-.776-1.082-1.215-2.34-1.317-3.771h3.273c.085.989.417 1.807.997 2.455.588.639 1.33 1.116 2.224 1.431.904.307 1.875.46 2.915.46 1.21 0 2.297-.195 3.26-.587.963-.401 1.726-.955 2.289-1.662.562-.716.843-1.552.843-2.506 0-.87-.243-1.577-.728-2.122-.486-.546-1.126-.989-1.918-1.33-.793-.34-1.65-.639-2.57-.895l-3.221-.92c-2.046-.588-3.665-1.428-4.858-2.519-1.193-1.09-1.79-2.518-1.79-4.282 0-1.466.396-2.745 1.189-3.836.801-1.099 1.875-1.951 3.222-2.556 1.355-.614 2.867-.92 4.538-.92 1.687 0 3.187.302 4.5.907 1.312.596 2.352 1.415 3.12 2.454a6.115 6.115 0 0 1 1.226 3.542h-3.068Zm11.81-6.546V61h-3.17V34.818h3.17Z"/>
</svg>
